<svg id="Copy_" data-name="Copy " xmlns="http://www.w3.org/2000/svg" width="32" height="32" viewBox="0 0 32 32">
  <g id="copy">
    <rect id="Rectangle_7" data-name="Rectangle 7" width="32" height="32" fill="#444" opacity="0"/>
    <path id="Path_4" data-name="Path 4" d="M21,25H13a4,4,0,0,1-4-4V13a4,4,0,0,1,4-4h8a4,4,0,0,1,4,4v8A4,4,0,0,1,21,25ZM13,11.667A1.333,1.333,0,0,0,11.667,13v8A1.333,1.333,0,0,0,13,22.333h8A1.333,1.333,0,0,0,22.333,21V13A1.333,1.333,0,0,0,21,11.667Z" transform="translate(3 3)" fill="#444"/>
    <path id="Path_5" data-name="Path 5" d="M11.973,19H6.56A3.573,3.573,0,0,1,3,15.44V6.56A3.573,3.573,0,0,1,6.56,3h8.88A3.573,3.573,0,0,1,19,6.56v4.973H16.333V6.56a.893.893,0,0,0-.893-.893H6.56a.893.893,0,0,0-.893.893v8.88a.893.893,0,0,0,.893.893h5.413Z" transform="translate(1 1)" fill="#444"/>
  </g>
</svg>
