<svg id="Heart" xmlns="http://www.w3.org/2000/svg" width="22" height="22" viewBox="0 0 22 22">
  <g id="heart-2" data-name="heart" transform="translate(0 0)">
    <rect id="Rectangle_5" data-name="Rectangle 5" width="22" height="22" transform="translate(0 0)" fill="#a59f9f" opacity="0"/>
    <path id="Path_3" data-name="Path 3" d="M11.3,19.814a.93.93,0,0,1-.66-.27L3.414,12.307A4.868,4.868,0,1,1,10.3,5.423l1,1,1-1a4.868,4.868,0,0,1,6.884,6.884l-7.228,7.237a.93.93,0,0,1-.66.27ZM6.856,5.861a2.977,2.977,0,0,0-2.121.874,3.014,3.014,0,0,0,0,4.251L11.3,17.563l6.568-6.577a3.014,3.014,0,0,0,0-4.251,3.088,3.088,0,0,0-4.242,0L11.963,8.409a.93.93,0,0,1-1.321,0L8.977,6.735A2.977,2.977,0,0,0,6.856,5.861Z" transform="translate(0.239 0.1)" fill="#a59f9f"/>
  </g>
</svg>
