<svg id="Twitter" xmlns="http://www.w3.org/2000/svg" width="24" height="24" viewBox="0 0 24 24">
  <g id="twitter-2" data-name="twitter">
    <path id="Path_14" data-name="Path 14" d="M0,0H24V24H0" fill="#444" opacity="0"/>
    <path id="Path_15" data-name="Path 15" d="M8.51,20H8.43a10.87,10.87,0,0,1-4.65-1.09A1.38,1.38,0,0,1,3,17.47a1.41,1.41,0,0,1,1.16-1.18A6.63,6.63,0,0,0,6.7,15.4,9.49,9.49,0,0,1,3.19,6.33a1.41,1.41,0,0,1,1-1.15,1.35,1.35,0,0,1,1.43.41A7.09,7.09,0,0,0,10.5,8.34a4.494,4.494,0,0,1,7.78-2.91.7.7,0,0,0,.78.1A1.39,1.39,0,0,1,21,7.13a6.66,6.66,0,0,1-1.28,2.6A10.79,10.79,0,0,1,8.51,20Zm0-2h.08a8.79,8.79,0,0,0,9.09-8.59,1.32,1.32,0,0,1,.37-.85,5.19,5.19,0,0,0,.62-1,2.56,2.56,0,0,1-1.91-.85A2.45,2.45,0,0,0,15,6a2.5,2.5,0,0,0-1.79.69,2.53,2.53,0,0,0-.72,2.42l.26,1.14-1.17.08a8.3,8.3,0,0,1-6.54-2.4,7.12,7.12,0,0,0,3.73,6.46l.95.54-.63.9a5.62,5.62,0,0,1-2.68,1.92A8.34,8.34,0,0,0,8.5,18ZM19,6.65Z" fill="#444"/>
  </g>
</svg>
